<svg xmlns="http://www.w3.org/2000/svg" xmlns:xlink="http://www.w3.org/1999/xlink" width="32" height="32" viewBox="0 0 32 32"><defs><style>.a{fill:#fff;}.b{clip-path:url(#a);}.c{fill:#ff1654;}</style><clipPath id="a"><rect class="a" width="32" height="32" transform="translate(614 608)"/></clipPath></defs><g class="b" transform="translate(-614 -608)"><g transform="translate(614 608)"><path class="c" d="M27.321,4.684a16,16,0,1,0,0,22.632A16.024,16.024,0,0,0,27.321,4.684ZM25.568,25.563a13.525,13.525,0,1,1,0-19.127A13.541,13.541,0,0,1,25.568,25.563Z"/><path class="c" d="M21.346,19.427l-3.509-3.5,3.509-3.5a1.24,1.24,0,0,0-1.753-1.754l-3.512,3.507-3.512-3.507a1.24,1.24,0,1,0-1.753,1.754l3.509,3.5-3.509,3.5a1.24,1.24,0,0,0,1.753,1.754l3.512-3.507,3.512,3.507a1.24,1.24,0,1,0,1.753-1.754Z"/></g></g></svg>